<?xml version="1.0" encoding="utf-8" standalone="no"?>
<!DOCTYPE svg PUBLIC "-//W3C//DTD SVG 1.1//EN"
  "http://www.w3.org/Graphics/SVG/1.1/DTD/svg11.dtd">
<svg xmlns:xlink="http://www.w3.org/1999/xlink" width="293.4pt" height="291.6pt" viewBox="0 0 293.4 291.6" xmlns="http://www.w3.org/2000/svg" version="1.1">
 <metadata>
  <rdf:RDF xmlns:dc="http://purl.org/dc/elements/1.1/" xmlns:cc="http://creativecommons.org/ns#" xmlns:rdf="http://www.w3.org/1999/02/22-rdf-syntax-ns#">
   <cc:Work>
    <dc:type rdf:resource="http://purl.org/dc/dcmitype/StillImage"/>
    <dc:date>2023-05-08T17:49:48.563556</dc:date>
    <dc:format>image/svg+xml</dc:format>
    <dc:creator>
     <cc:Agent>
      <dc:title>Matplotlib v3.7.1, https://matplotlib.org/</dc:title>
     </cc:Agent>
    </dc:creator>
   </cc:Work>
  </rdf:RDF>
 </metadata>
 <defs>
  <style type="text/css">*{stroke-linejoin: round; stroke-linecap: butt}</style>
 </defs>
 <g id="figure_1">
  <g id="patch_1">
   <path d="M 0 291.6 
L 293.4 291.6 
L 293.4 0 
L 0 0 
z
" style="fill: #ffffff"/>
  </g>
  <g id="axes_1">
   <g id="patch_2">
    <path d="M 7.2 284.4 
L 286.2 284.4 
L 286.2 7.2 
L 7.2 7.2 
z
" style="fill: #ffffff"/>
   </g>
   <g id="QuadMesh_1">
    <path d="M 7.2 7.2 
L 35.1 7.2 
L 35.1 34.92 
L 7.2 34.92 
L 7.2 7.2 
" clip-path="url(#pf277228940)" style="fill: #03051a"/>
    <path d="M 35.1 7.2 
L 63 7.2 
L 63 34.92 
L 35.1 34.92 
L 35.1 7.2 
" clip-path="url(#pf277228940)" style="fill: #faebdd"/>
    <path d="M 63 7.2 
L 90.9 7.2 
L 90.9 34.92 
L 63 34.92 
L 63 7.2 
" clip-path="url(#pf277228940)" style="fill: #faebdd"/>
    <path d="M 90.9 7.2 
L 118.8 7.2 
L 118.8 34.92 
L 90.9 34.92 
L 90.9 7.2 
" clip-path="url(#pf277228940)" style="fill: #faebdd"/>
    <path d="M 118.8 7.2 
L 146.7 7.2 
L 146.7 34.92 
L 118.8 34.92 
L 118.8 7.2 
" clip-path="url(#pf277228940)" style="fill: #03051a"/>
    <path d="M 146.7 7.2 
L 174.6 7.2 
L 174.6 34.92 
L 146.7 34.92 
L 146.7 7.2 
" clip-path="url(#pf277228940)" style="fill: #03051a"/>
    <path d="M 174.6 7.2 
L 202.5 7.2 
L 202.5 34.92 
L 174.6 34.92 
L 174.6 7.2 
" clip-path="url(#pf277228940)" style="fill: #03051a"/>
    <path d="M 202.5 7.2 
L 230.4 7.2 
L 230.4 34.92 
L 202.5 34.92 
L 202.5 7.2 
" clip-path="url(#pf277228940)" style="fill: #03051a"/>
    <path d="M 230.4 7.2 
L 258.3 7.2 
L 258.3 34.92 
L 230.4 34.92 
L 230.4 7.2 
" clip-path="url(#pf277228940)" style="fill: #03051a"/>
    <path d="M 258.3 7.2 
L 286.2 7.2 
L 286.2 34.92 
L 258.3 34.92 
L 258.3 7.2 
" clip-path="url(#pf277228940)" style="fill: #03051a"/>
    <path d="M 7.2 34.92 
L 35.1 34.92 
L 35.1 62.64 
L 7.2 62.64 
L 7.2 34.92 
" clip-path="url(#pf277228940)" style="fill: #03051a"/>
    <path d="M 35.1 34.92 
L 63 34.92 
L 63 62.64 
L 35.1 62.64 
L 35.1 34.92 
" clip-path="url(#pf277228940)" style="fill: #03051a"/>
    <path d="M 63 34.92 
L 90.9 34.92 
L 90.9 62.64 
L 63 62.64 
L 63 34.92 
" clip-path="url(#pf277228940)" style="fill: #03051a"/>
    <path d="M 90.9 34.92 
L 118.8 34.92 
L 118.8 62.64 
L 90.9 62.64 
L 90.9 34.92 
" clip-path="url(#pf277228940)" style="fill: #03051a"/>
    <path d="M 118.8 34.92 
L 146.7 34.92 
L 146.7 62.64 
L 118.8 62.64 
L 118.8 34.92 
" clip-path="url(#pf277228940)" style="fill: #03051a"/>
    <path d="M 146.7 34.92 
L 174.6 34.92 
L 174.6 62.64 
L 146.7 62.64 
L 146.7 34.92 
" clip-path="url(#pf277228940)" style="fill: #03051a"/>
    <path d="M 174.6 34.92 
L 202.5 34.92 
L 202.5 62.64 
L 174.6 62.64 
L 174.6 34.92 
" clip-path="url(#pf277228940)" style="fill: #faebdd"/>
    <path d="M 202.5 34.92 
L 230.4 34.92 
L 230.4 62.64 
L 202.5 62.64 
L 202.5 34.92 
" clip-path="url(#pf277228940)" style="fill: #03051a"/>
    <path d="M 230.4 34.92 
L 258.3 34.92 
L 258.3 62.64 
L 230.4 62.64 
L 230.4 34.92 
" clip-path="url(#pf277228940)" style="fill: #03051a"/>
    <path d="M 258.3 34.92 
L 286.2 34.92 
L 286.2 62.64 
L 258.3 62.64 
L 258.3 34.92 
" clip-path="url(#pf277228940)" style="fill: #03051a"/>
    <path d="M 7.2 62.64 
L 35.1 62.64 
L 35.1 90.36 
L 7.2 90.36 
L 7.2 62.64 
" clip-path="url(#pf277228940)" style="fill: #03051a"/>
    <path d="M 35.1 62.64 
L 63 62.64 
L 63 90.36 
L 35.1 90.36 
L 35.1 62.64 
" clip-path="url(#pf277228940)" style="fill: #03051a"/>
    <path d="M 63 62.64 
L 90.9 62.64 
L 90.9 90.36 
L 63 90.36 
L 63 62.64 
" clip-path="url(#pf277228940)" style="fill: #03051a"/>
    <path d="M 90.9 62.64 
L 118.8 62.64 
L 118.8 90.36 
L 90.9 90.36 
L 90.9 62.64 
" clip-path="url(#pf277228940)" style="fill: #03051a"/>
    <path d="M 118.8 62.64 
L 146.7 62.64 
L 146.7 90.36 
L 118.8 90.36 
L 118.8 62.64 
" clip-path="url(#pf277228940)" style="fill: #03051a"/>
    <path d="M 146.7 62.64 
L 174.6 62.64 
L 174.6 90.36 
L 146.7 90.36 
L 146.7 62.64 
" clip-path="url(#pf277228940)" style="fill: #03051a"/>
    <path d="M 174.6 62.64 
L 202.5 62.64 
L 202.5 90.36 
L 174.6 90.36 
L 174.6 62.64 
" clip-path="url(#pf277228940)" style="fill: #03051a"/>
    <path d="M 202.5 62.64 
L 230.4 62.64 
L 230.4 90.36 
L 202.5 90.36 
L 202.5 62.64 
" clip-path="url(#pf277228940)" style="fill: #03051a"/>
    <path d="M 230.4 62.64 
L 258.3 62.64 
L 258.3 90.36 
L 230.4 90.36 
L 230.4 62.64 
" clip-path="url(#pf277228940)" style="fill: #03051a"/>
    <path d="M 258.3 62.64 
L 286.2 62.64 
L 286.2 90.36 
L 258.3 90.36 
L 258.3 62.64 
" clip-path="url(#pf277228940)" style="fill: #03051a"/>
    <path d="M 7.2 90.36 
L 35.1 90.36 
L 35.1 118.08 
L 7.2 118.08 
L 7.2 90.36 
" clip-path="url(#pf277228940)" style="fill: #03051a"/>
    <path d="M 35.1 90.36 
L 63 90.36 
L 63 118.08 
L 35.1 118.08 
L 35.1 90.36 
" clip-path="url(#pf277228940)" style="fill: #03051a"/>
    <path d="M 63 90.36 
L 90.9 90.36 
L 90.9 118.08 
L 63 118.08 
L 63 90.36 
" clip-path="url(#pf277228940)" style="fill: #03051a"/>
    <path d="M 90.9 90.36 
L 118.8 90.36 
L 118.8 118.08 
L 90.9 118.08 
L 90.9 90.36 
" clip-path="url(#pf277228940)" style="fill: #03051a"/>
    <path d="M 118.8 90.36 
L 146.7 90.36 
L 146.7 118.08 
L 118.8 118.08 
L 118.8 90.36 
" clip-path="url(#pf277228940)" style="fill: #03051a"/>
    <path d="M 146.7 90.36 
L 174.6 90.36 
L 174.6 118.08 
L 146.7 118.08 
L 146.7 90.36 
" clip-path="url(#pf277228940)" style="fill: #03051a"/>
    <path d="M 174.6 90.36 
L 202.5 90.36 
L 202.5 118.08 
L 174.6 118.08 
L 174.6 90.36 
" clip-path="url(#pf277228940)" style="fill: #03051a"/>
    <path d="M 202.5 90.36 
L 230.4 90.36 
L 230.4 118.08 
L 202.5 118.08 
L 202.5 90.36 
" clip-path="url(#pf277228940)" style="fill: #03051a"/>
    <path d="M 230.4 90.36 
L 258.3 90.36 
L 258.3 118.08 
L 230.4 118.08 
L 230.4 90.36 
" clip-path="url(#pf277228940)" style="fill: #03051a"/>
    <path d="M 258.3 90.36 
L 286.2 90.36 
L 286.2 118.08 
L 258.3 118.08 
L 258.3 90.36 
" clip-path="url(#pf277228940)" style="fill: #03051a"/>
    <path d="M 7.2 118.08 
L 35.1 118.08 
L 35.1 145.8 
L 7.2 145.8 
L 7.2 118.08 
" clip-path="url(#pf277228940)" style="fill: #faebdd"/>
    <path d="M 35.1 118.08 
L 63 118.08 
L 63 145.8 
L 35.1 145.8 
L 35.1 118.08 
" clip-path="url(#pf277228940)" style="fill: #03051a"/>
    <path d="M 63 118.08 
L 90.9 118.08 
L 90.9 145.8 
L 63 145.8 
L 63 118.08 
" clip-path="url(#pf277228940)" style="fill: #faebdd"/>
    <path d="M 90.9 118.08 
L 118.8 118.08 
L 118.8 145.8 
L 90.9 145.8 
L 90.9 118.08 
" clip-path="url(#pf277228940)" style="fill: #faebdd"/>
    <path d="M 118.8 118.08 
L 146.7 118.08 
L 146.7 145.8 
L 118.8 145.8 
L 118.8 118.08 
" clip-path="url(#pf277228940)" style="fill: #03051a"/>
    <path d="M 146.7 118.08 
L 174.6 118.08 
L 174.6 145.8 
L 146.7 145.8 
L 146.7 118.08 
" clip-path="url(#pf277228940)" style="fill: #faebdd"/>
    <path d="M 174.6 118.08 
L 202.5 118.08 
L 202.5 145.8 
L 174.6 145.8 
L 174.6 118.08 
" clip-path="url(#pf277228940)" style="fill: #03051a"/>
    <path d="M 202.5 118.08 
L 230.4 118.08 
L 230.4 145.8 
L 202.5 145.8 
L 202.5 118.08 
" clip-path="url(#pf277228940)" style="fill: #03051a"/>
    <path d="M 230.4 118.08 
L 258.3 118.08 
L 258.3 145.8 
L 230.4 145.8 
L 230.4 118.08 
" clip-path="url(#pf277228940)" style="fill: #03051a"/>
    <path d="M 258.3 118.08 
L 286.2 118.08 
L 286.2 145.8 
L 258.3 145.8 
L 258.3 118.08 
" clip-path="url(#pf277228940)" style="fill: #faebdd"/>
    <path d="M 7.2 145.8 
L 35.1 145.8 
L 35.1 173.52 
L 7.2 173.52 
L 7.2 145.8 
" clip-path="url(#pf277228940)" style="fill: #03051a"/>
    <path d="M 35.1 145.8 
L 63 145.8 
L 63 173.52 
L 35.1 173.52 
L 35.1 145.8 
" clip-path="url(#pf277228940)" style="fill: #03051a"/>
    <path d="M 63 145.8 
L 90.9 145.8 
L 90.9 173.52 
L 63 173.52 
L 63 145.8 
" clip-path="url(#pf277228940)" style="fill: #03051a"/>
    <path d="M 90.9 145.8 
L 118.8 145.8 
L 118.8 173.52 
L 90.9 173.52 
L 90.9 145.8 
" clip-path="url(#pf277228940)" style="fill: #faebdd"/>
    <path d="M 118.8 145.8 
L 146.7 145.8 
L 146.7 173.52 
L 118.8 173.52 
L 118.8 145.8 
" clip-path="url(#pf277228940)" style="fill: #faebdd"/>
    <path d="M 146.7 145.8 
L 174.6 145.8 
L 174.6 173.52 
L 146.7 173.52 
L 146.7 145.8 
" clip-path="url(#pf277228940)" style="fill: #03051a"/>
    <path d="M 174.6 145.8 
L 202.5 145.8 
L 202.5 173.52 
L 174.6 173.52 
L 174.6 145.8 
" clip-path="url(#pf277228940)" style="fill: #03051a"/>
    <path d="M 202.5 145.8 
L 230.4 145.8 
L 230.4 173.52 
L 202.5 173.52 
L 202.5 145.8 
" clip-path="url(#pf277228940)" style="fill: #03051a"/>
    <path d="M 230.4 145.8 
L 258.3 145.8 
L 258.3 173.52 
L 230.4 173.52 
L 230.4 145.8 
" clip-path="url(#pf277228940)" style="fill: #03051a"/>
    <path d="M 258.3 145.8 
L 286.2 145.8 
L 286.2 173.52 
L 258.3 173.52 
L 258.3 145.8 
" clip-path="url(#pf277228940)" style="fill: #faebdd"/>
    <path d="M 7.2 173.52 
L 35.1 173.52 
L 35.1 201.24 
L 7.2 201.24 
L 7.2 173.52 
" clip-path="url(#pf277228940)" style="fill: #faebdd"/>
    <path d="M 35.1 173.52 
L 63 173.52 
L 63 201.24 
L 35.1 201.24 
L 35.1 173.52 
" clip-path="url(#pf277228940)" style="fill: #faebdd"/>
    <path d="M 63 173.52 
L 90.9 173.52 
L 90.9 201.24 
L 63 201.24 
L 63 173.52 
" clip-path="url(#pf277228940)" style="fill: #03051a"/>
    <path d="M 90.9 173.52 
L 118.8 173.52 
L 118.8 201.24 
L 90.9 201.24 
L 90.9 173.52 
" clip-path="url(#pf277228940)" style="fill: #faebdd"/>
    <path d="M 118.8 173.52 
L 146.7 173.52 
L 146.7 201.24 
L 118.8 201.24 
L 118.8 173.52 
" clip-path="url(#pf277228940)" style="fill: #03051a"/>
    <path d="M 146.7 173.52 
L 174.6 173.52 
L 174.6 201.24 
L 146.7 201.24 
L 146.7 173.52 
" clip-path="url(#pf277228940)" style="fill: #03051a"/>
    <path d="M 174.6 173.52 
L 202.5 173.52 
L 202.5 201.24 
L 174.6 201.24 
L 174.6 173.52 
" clip-path="url(#pf277228940)" style="fill: #03051a"/>
    <path d="M 202.5 173.52 
L 230.4 173.52 
L 230.4 201.24 
L 202.5 201.24 
L 202.5 173.52 
" clip-path="url(#pf277228940)" style="fill: #03051a"/>
    <path d="M 230.4 173.52 
L 258.3 173.52 
L 258.3 201.24 
L 230.4 201.24 
L 230.4 173.52 
" clip-path="url(#pf277228940)" style="fill: #03051a"/>
    <path d="M 258.3 173.52 
L 286.2 173.52 
L 286.2 201.24 
L 258.3 201.24 
L 258.3 173.52 
" clip-path="url(#pf277228940)" style="fill: #faebdd"/>
    <path d="M 7.2 201.24 
L 35.1 201.24 
L 35.1 228.96 
L 7.2 228.96 
L 7.2 201.24 
" clip-path="url(#pf277228940)" style="fill: #03051a"/>
    <path d="M 35.1 201.24 
L 63 201.24 
L 63 228.96 
L 35.1 228.96 
L 35.1 201.24 
" clip-path="url(#pf277228940)" style="fill: #faebdd"/>
    <path d="M 63 201.24 
L 90.9 201.24 
L 90.9 228.96 
L 63 228.96 
L 63 201.24 
" clip-path="url(#pf277228940)" style="fill: #03051a"/>
    <path d="M 90.9 201.24 
L 118.8 201.24 
L 118.8 228.96 
L 90.9 228.96 
L 90.9 201.24 
" clip-path="url(#pf277228940)" style="fill: #03051a"/>
    <path d="M 118.8 201.24 
L 146.7 201.24 
L 146.7 228.96 
L 118.8 228.96 
L 118.8 201.24 
" clip-path="url(#pf277228940)" style="fill: #faebdd"/>
    <path d="M 146.7 201.24 
L 174.6 201.24 
L 174.6 228.96 
L 146.7 228.96 
L 146.7 201.24 
" clip-path="url(#pf277228940)" style="fill: #faebdd"/>
    <path d="M 174.6 201.24 
L 202.5 201.24 
L 202.5 228.96 
L 174.6 228.96 
L 174.6 201.24 
" clip-path="url(#pf277228940)" style="fill: #03051a"/>
    <path d="M 202.5 201.24 
L 230.4 201.24 
L 230.4 228.96 
L 202.5 228.96 
L 202.5 201.24 
" clip-path="url(#pf277228940)" style="fill: #03051a"/>
    <path d="M 230.4 201.24 
L 258.3 201.24 
L 258.3 228.96 
L 230.4 228.96 
L 230.4 201.24 
" clip-path="url(#pf277228940)" style="fill: #03051a"/>
    <path d="M 258.3 201.24 
L 286.2 201.24 
L 286.2 228.96 
L 258.3 228.96 
L 258.3 201.24 
" clip-path="url(#pf277228940)" style="fill: #faebdd"/>
    <path d="M 7.2 228.96 
L 35.1 228.96 
L 35.1 256.68 
L 7.2 256.68 
L 7.2 228.96 
" clip-path="url(#pf277228940)" style="fill: #03051a"/>
    <path d="M 35.1 228.96 
L 63 228.96 
L 63 256.68 
L 35.1 256.68 
L 35.1 228.96 
" clip-path="url(#pf277228940)" style="fill: #03051a"/>
    <path d="M 63 228.96 
L 90.9 228.96 
L 90.9 256.68 
L 63 256.68 
L 63 228.96 
" clip-path="url(#pf277228940)" style="fill: #03051a"/>
    <path d="M 90.9 228.96 
L 118.8 228.96 
L 118.8 256.68 
L 90.9 256.68 
L 90.9 228.96 
" clip-path="url(#pf277228940)" style="fill: #03051a"/>
    <path d="M 118.8 228.96 
L 146.7 228.96 
L 146.7 256.68 
L 118.8 256.68 
L 118.8 228.96 
" clip-path="url(#pf277228940)" style="fill: #03051a"/>
    <path d="M 146.7 228.96 
L 174.6 228.96 
L 174.6 256.68 
L 146.7 256.68 
L 146.7 228.96 
" clip-path="url(#pf277228940)" style="fill: #03051a"/>
    <path d="M 174.6 228.96 
L 202.5 228.96 
L 202.5 256.68 
L 174.6 256.68 
L 174.6 228.96 
" clip-path="url(#pf277228940)" style="fill: #03051a"/>
    <path d="M 202.5 228.96 
L 230.4 228.96 
L 230.4 256.68 
L 202.5 256.68 
L 202.5 228.96 
" clip-path="url(#pf277228940)" style="fill: #03051a"/>
    <path d="M 230.4 228.96 
L 258.3 228.96 
L 258.3 256.68 
L 230.4 256.68 
L 230.4 228.96 
" clip-path="url(#pf277228940)" style="fill: #03051a"/>
    <path d="M 258.3 228.96 
L 286.2 228.96 
L 286.2 256.68 
L 258.3 256.68 
L 258.3 228.96 
" clip-path="url(#pf277228940)" style="fill: #faebdd"/>
    <path d="M 7.2 256.68 
L 35.1 256.68 
L 35.1 284.4 
L 7.2 284.4 
L 7.2 256.68 
" clip-path="url(#pf277228940)" style="fill: #03051a"/>
    <path d="M 35.1 256.68 
L 63 256.68 
L 63 284.4 
L 35.1 284.4 
L 35.1 256.68 
" clip-path="url(#pf277228940)" style="fill: #03051a"/>
    <path d="M 63 256.68 
L 90.9 256.68 
L 90.9 284.4 
L 63 284.4 
L 63 256.68 
" clip-path="url(#pf277228940)" style="fill: #faebdd"/>
    <path d="M 90.9 256.68 
L 118.8 256.68 
L 118.8 284.4 
L 90.9 284.4 
L 90.9 256.68 
" clip-path="url(#pf277228940)" style="fill: #faebdd"/>
    <path d="M 118.8 256.68 
L 146.7 256.68 
L 146.7 284.4 
L 118.8 284.4 
L 118.8 256.68 
" clip-path="url(#pf277228940)" style="fill: #faebdd"/>
    <path d="M 146.7 256.68 
L 174.6 256.68 
L 174.6 284.4 
L 146.7 284.4 
L 146.7 256.68 
" clip-path="url(#pf277228940)" style="fill: #03051a"/>
    <path d="M 174.6 256.68 
L 202.5 256.68 
L 202.5 284.4 
L 174.6 284.4 
L 174.6 256.68 
" clip-path="url(#pf277228940)" style="fill: #03051a"/>
    <path d="M 202.5 256.68 
L 230.4 256.68 
L 230.4 284.4 
L 202.5 284.4 
L 202.5 256.68 
" clip-path="url(#pf277228940)" style="fill: #03051a"/>
    <path d="M 230.4 256.68 
L 258.3 256.68 
L 258.3 284.4 
L 230.4 284.4 
L 230.4 256.68 
" clip-path="url(#pf277228940)" style="fill: #03051a"/>
    <path d="M 258.3 256.68 
L 286.2 256.68 
L 286.2 284.4 
L 258.3 284.4 
L 258.3 256.68 
" clip-path="url(#pf277228940)" style="fill: #03051a"/>
   </g>
   <g id="matplotlib.axis_1"/>
   <g id="matplotlib.axis_2"/>
  </g>
 </g>
 <defs>
  <clipPath id="pf277228940">
   <rect x="7.2" y="7.2" width="279" height="277.2"/>
  </clipPath>
 </defs>
</svg>
